<svg xmlns="http://www.w3.org/2000/svg" xmlns:svg="http://www.w3.org/2000/svg" id="svg2" width="32" height="32" version="1.1" viewBox="0 0 32 32"><metadata id="metadata7"/><g id="layer1" transform="translate(-208.65625,-632.4375)"><g id="g5609" transform="matrix(0.10878817,0,0,0.10878817,184.59034,592.45491)"><path id="path5073" d="m 367.1282,648.85881 -27.87054,-51.05696 43.91222,-28.31214 z" style="fill:#303f9f;fill-opacity:1;stroke:none"/><path id="path5075" d="m 358.11877,523.54589 -18.86111,74.25596 43.89303,-28.23753 z" style="fill:#3949ab;fill-opacity:1;stroke:none"/><path id="path5077" d="M 339.25766,597.80185 309.81992,543.4964 358.11877,523.54589 z" style="fill:#9fa8da;fill-opacity:1;stroke:none"/><path id="path5083" d="m 321.77925,456.51404 -11.95933,86.98236 48.29885,-19.95051 z" style="fill:#303f9f;fill-opacity:1;stroke:none"/><path id="path5085" d="m 396.92809,488.92607 -28.80694,53.00636 15.02954,27.63189 z" style="fill:#c5cae9;fill-opacity:1;stroke:none"/><path id="path5087" d="m 309.81992,543.4964 -29.45786,-54.08204 41.41719,-32.90032 z" style="fill:#5c6bc0;fill-opacity:1;stroke:none"/><path id="path5089" d="m 424.96714,544.084 -37.46497,0.0312 68.05792,-55.31976 z" style="fill:#283593;fill-opacity:1;stroke:none"/><path id="path5097" d="m 309.88277,434.58815 -29.52071,54.82621 41.41719,-32.90032 z" style="fill:#c5cae9;fill-opacity:1;stroke:none"/><path id="path5099" d="m 426.72149,434.94529 -29.7934,53.98078 -9.42592,55.18913 z" style="fill:#e8eaf6;fill-opacity:1;stroke:none"/><path id="path5101" d="m 280.36206,489.41436 -7.99111,-14.56861 37.51182,-40.25759 z" style="fill:#303f9f;fill-opacity:1;stroke:none"/><path id="path5103" d="m 387.50217,544.1152 39.21932,-109.16991 28.8386,53.85018 z" style="fill:#3f51b5;fill-opacity:1;stroke:none"/><path id="path5115" d="m 280.22019,380.34483 -7.84924,94.50092 37.51182,-40.25759 z" style="fill:#3949ab;fill-opacity:1;stroke:none"/><path id="path5117" d="m 456.61375,380.34483 -29.89226,54.60046 28.8386,53.85018 z" style="fill:#7986cb;fill-opacity:1;stroke:none"/><path id="path5119" d="m 272.37095,474.84575 -51.15286,-94.50092 59.0021,0 z" style="fill:#9fa8da;fill-opacity:1;stroke:none"/><path id="path5121" d="m 455.56009,488.79547 1.05366,-108.45064 58.754,0 z" style="fill:#1a237e;fill-opacity:1;stroke:none"/><path id="path5079" d="M 367.1282,648.85881 387.50217,544.1152 424.96714,544.084 z" style="fill:#1a237e;fill-opacity:1;stroke:none"/></g></g></svg>