<svg xmlns="http://www.w3.org/2000/svg" xmlns:svg="http://www.w3.org/2000/svg" id="svg2" width="320" height="320" version="1.1" viewBox="0 0 320 320"><metadata id="metadata7"/><g id="layer1" transform="translate(-208.65625,-344.4375)"><path style="fill:#254c63;fill-opacity:1;stroke:#fff;stroke-width:15;stroke-miterlimit:4;stroke-opacity:1;stroke-dasharray:none" id="path5073-3" d="m 221.59375,370.1875 51.15625,94.5 7.96875,14.5625 29.46875,54.09375 29.4375,54.28125 27.875,51.0625 57.84375,-104.78125 30.59375,-55.28125 59.78125,-108.4375 -58.75,0 -29.875,54.59375 -29.8125,53.96875 -28.78125,53 14,25.8125 -24.03125,-44.1875 -36.3125,-67.03125 -11.90625,-21.9375 -29.65625,-54.21875 -59,0 z"/><g id="g5609" transform="translate(0.36333,-10.16432)"><path id="path5073" d="m 367.1282,648.85881 -27.87054,-51.05696 43.91222,-28.31214 z" style="fill:#254c63;fill-opacity:1;stroke:none"/><path id="path5075" d="m 358.11877,523.54589 -18.86111,74.25596 43.89303,-28.23753 z" style="fill:#265c7d;fill-opacity:1;stroke:none"/><path id="path5077" d="M 339.25766,597.80185 309.81992,543.4964 358.11877,523.54589 z" style="fill:#3788b7;fill-opacity:1;stroke:none"/><path id="path5083" d="m 321.77925,456.51404 -11.95933,86.98236 48.29885,-19.95051 z" style="fill:#1e4c66;fill-opacity:1;stroke:none"/><path id="path5085" d="m 396.92809,488.92607 -28.80694,53.00636 15.02954,27.63189 z" style="fill:#3e9dd7;fill-opacity:1;stroke:none"/><path id="path5087" d="m 309.81992,543.4964 -29.45786,-54.08204 41.41719,-32.90032 z" style="fill:#2d709a;fill-opacity:1;stroke:none"/><path id="path5089" d="m 424.96714,544.084 -37.46497,0.0312 68.05792,-55.31976 z" style="fill:#28495c;fill-opacity:1;stroke:none"/><path id="path5097" d="m 309.88277,434.58815 -29.52071,54.82621 41.41719,-32.90032 z" style="fill:#3c97ce;fill-opacity:1;stroke:none"/><path id="path5099" d="m 426.72149,434.94529 -29.7934,53.98078 -9.42592,55.18913 z" style="fill:#61b7eb;fill-opacity:1;stroke:none"/><path id="path5101" d="m 280.36206,489.41436 -7.99111,-14.56861 37.51182,-40.25759 z" style="fill:#1e4c66;fill-opacity:1;stroke:none"/><path id="path5103" d="m 387.50217,544.1152 39.21932,-109.16991 28.8386,53.85018 z" style="fill:#296589;fill-opacity:1;stroke:none"/><path id="path5115" d="m 280.22019,380.34483 -7.84924,94.50092 37.51182,-40.25759 z" style="fill:#1a5a81;fill-opacity:1;stroke:none"/><path id="path5117" d="m 456.61375,380.34483 -29.89226,54.60046 28.8386,53.85018 z" style="fill:#427b9e;fill-opacity:1;stroke:none"/><path id="path5119" d="m 272.37095,474.84575 -51.15286,-94.50092 59.0021,0 z" style="fill:#328cc2;fill-opacity:1;stroke:none"/><path id="path5121" d="m 455.56009,488.79547 1.05366,-108.45064 58.754,0 z" style="fill:#183b4f;fill-opacity:1;stroke:none"/><path id="path5079" d="M 367.1282,648.85881 387.50217,544.1152 424.96714,544.084 z" style="fill:#0d3044;fill-opacity:1;stroke:none"/></g></g></svg>